<svg xmlns="http://www.w3.org/2000/svg" width="38" height="22" viewBox="0 0 38 22">
    <g fill="none" fill-rule="evenodd">
        <path fill="#FFF" d="M0 0v1.746h1.64V6h2.285V1.746h1.64V0H0zm7.407 0l-2.32 6h2.314l1.26-3.631L9.929 6h2.31L9.925 0H7.407zm4.356 0v1.746h1.635V6h2.284V1.746h1.642V0h-5.56zm7.4 0L16.84 6h2.319l1.264-3.631L21.685 6H24l-2.315-6h-2.522zM0 15.008C0 10.951 2.191 9 6.02 9c2.325 0 3.845.822 4.633 1.85.154.204.212.375.212.563 0 .497-.462.907-1.039.907-.269 0-.538-.102-.789-.342-.786-.77-1.615-1.197-3.018-1.197-2.558 0-3.712 1.403-3.712 4.227 0 2.995 1.154 4.211 3.712 4.211 1.422 0 2.192-.29 3.115-1.13.308-.273.557-.376.827-.376.577 0 1.039.411 1.039.924a.789.789 0 0 1-.193.514C9.884 20.246 8.077 21 6.02 21 2.191 21 0 19.203 0 15.008M18.042 19.097a.93.93 0 0 1 .958.95c0 .548-.394.953-.958.953h-5.066c-.566 0-.976-.423-.976-.987v-9.991c0-.564.445-1.022.993-1.022s.992.458.992 1.022v9.075h4.057zM23 19.94c0 .585-.448 1.06-1.001 1.06-.551 0-.999-.475-.999-1.06v-6.88c0-.584.448-1.06.999-1.06.553 0 1.001.476 1.001 1.06v6.88zM36.963 22c-.277 0-.536-.108-.73-.302L34.836 20.3l-.405.246a5.714 5.714 0 0 1-.254.147l-.034.016a6.583 6.583 0 0 1-1.967.647 6.062 6.062 0 0 1-.937.074 6.541 6.541 0 0 1-1.548-.191 6.42 6.42 0 0 1-2.16-1.03 6.073 6.073 0 0 1-1.62-1.756 6.433 6.433 0 0 1-.304-.545 6.173 6.173 0 0 1-.517-1.641l-.01-.059-.012-.068-.013-.1a6.343 6.343 0 0 1-.056-.822 6.264 6.264 0 0 1 .192-1.523 6.203 6.203 0 0 1 1.048-2.154 6.303 6.303 0 0 1 1.78-1.617c.267-.168.554-.316.855-.442a6.438 6.438 0 0 1 1.47-.413 6.163 6.163 0 0 1 2.507.14l.019.003c.064.019.126.034.185.054l.02.006a6.237 6.237 0 0 1 3.207 2.346c.096.136.176.26.244.378.32.53.56 1.097.71 1.684.06.237.108.49.14.755a6.7 6.7 0 0 1-.136 2.293 6.216 6.216 0 0 1-.704 1.699l-.242.405 1.398 1.402c.41.411.41 1.054 0 1.465a1.028 1.028 0 0 1-.73.302M31.29 10.703a4.46 4.46 0 0 0-.68.052 4.765 4.765 0 0 0-1.712.618l-.014.008c-.52.334-.939.72-1.28 1.182a4.302 4.302 0 0 0-.757 1.573 4.049 4.049 0 0 0-.098 1.747c.093.614.293 1.159.61 1.664.3.493.708.933 1.178 1.273a4.505 4.505 0 0 0 4.434.554 4.431 4.431 0 0 0 1.887-1.503c.337-.451.584-.976.731-1.562.143-.596.173-1.19.09-1.767-.194-1.2-.815-2.25-1.75-2.954a4.342 4.342 0 0 0-2.639-.885"/>
        <path fill="#FF1744" d="M23.637 9.882a1.24 1.24 0 0 1-1.754 1.754l-1.52-1.52a1.24 1.24 0 0 1 1.753-1.753l1.521 1.52z"/>
    </g>
</svg>